:SAMPLES-PER-SECOND 30
:FULLY-SPECIFIED
:DEGREES
735
root  -40.5781 37.9605 -0.608438 -86.7207 -83.0112 86.8151
RightUpLeg  4.80689 -9.25132 -9.58951
RightLeg  35.4534 6.92114 5.02618
RightFoot  -25.2822 0.576944 6.40332
RightToes  2.32829e-010 0 -3.6325e-017
Spine  -6.99133 0.584407 -4.14972
Spine1  15.5955 1.27175 -0.255495
HEad  2.68387 -0.896966 0.087628
LeftShoulder1  0.0999256 3.22501 -29.979
LeftArm  -8.18289 9.95765 -33.9315
LeftForeArm  47.1043 -77.9913 -64.984
LeftHand  -0.0120106 4.16032 -1.09008
RightShoulder  -0.363716 -4.59092 26.388
RightArm  -7.51279 -19.5586 34.217
RightForeArm  89.1658 76.8564 119.958
RightHand  -0.122006 -0.49462 -2.8474
LeftUpLeg  -27.1402 -1.21216 -9.92721
LeftLeg  17.6297 3.76681 1.71429
LeftFoot  9.52773 -1.42874 7.40368
LeftToes  -3.54706e-010 1.16038e-010 5.28031e-012
736
root  -41.5948 37.9839 -0.603944 -91.6415 -81.9572 91.7504
RightUpLeg  0.167295 -7.88836 -11.2429
RightLeg  45.8735 6.22192 6.54074
RightFoot  -17.8094 0.623268 13.6858
RightToes  2.32829e-010 0 -3.6325e-017
Spine  -6.03424 0.496438 -5.82376
Spine1  16.4666 1.57909 -1.66014
HEad  2.46003 -0.386736 0.357237
LeftShoulder1  0.220807 2.87715 -29.0432
LeftArm  -8.74191 9.49275 -34.9351
LeftForeArm  41.7151 -77.3542 -58.9378
LeftHand  -0.00280554 3.67534 -1.24059
RightShoulder  -0.417376 -4.74095 26.7648
RightArm  -7.50396 -18.1791 35.2189
RightForeArm  82.0631 77.7334 112.03
RightHand  -0.113033 -0.584699 -2.66786
LeftUpLeg  -26.6082 0.749498 -11.3601
LeftLeg  20.0515 2.75735 1.44699
LeftFoot  6.36503 -1.18193 7.32836
LeftToes  -3.54706e-010 1.16038e-010 5.28031e-012
737
root  -42.5255 38.0287 -0.516586 -91.8268 -81.6148 91.5818
RightUpLeg  -6.37941 -7.59155 -12.4941
RightLeg  57.5961 5.01265 7.9917
RightFoot  -4.78945 -0.70756 14.2478
RightToes  2.32829e-010 0 -3.6325e-017
Spine  -3.05797 -0.0296168 -6.59446
Spine1  15.4701 0.903008 -2.33526
HEad  2.43305 0.321268 -0.689135
LeftShoulder1  0.242853 2.81916 -29.3362
LeftArm  -8.94862 8.4974 -34.7735
LeftForeArm  37.4704 -76.7409 -54.7159
LeftHand  -0.00227383 3.77063 -1.32166
RightShoulder  -0.318126 -4.4589 26.1713
RightArm  -7.03888 -16.2369 36.0422
RightForeArm  74.4457 78.2723 104.111
RightHand  -0.13406 -0.237886 -3.01256
LeftUpLeg  -25.6287 1.32929 -11.9425
LeftLeg  22.0888 2.39257 1.4069
LeftFoot  3.67135 -1.00153 7.42266
LeftToes  -3.54706e-010 1.16038e-010 5.28031e-012
738
root  -43.402 38.0993 -0.553439 -102.603 -81.2893 100.884
RightUpLeg  -12.2113 -6.01376 -12.7675
RightLeg  66.2989 3.36062 7.69891
RightFoot  5.20105 -1.24996 8.47795
RightToes  2.32829e-010 0 -3.6325e-017
Spine  0.439707 0.25932 -7.55739
Spine1  15.694 0.904542 -2.78867
HEad  1.61414 1.17915 -1.39164
LeftShoulder1  0.266781 2.73868 -28.7566
LeftArm  -9.14027 6.47659 -35.2424
LeftForeArm  32.1774 -75.6963 -48.8713
LeftHand  0.0137928 3.14928 -1.61512
RightShoulder  -0.320065 -4.46604 26.0943
RightArm  -6.44751 -12.463 36.663
RightForeArm  64.7811 78.6059 93.9822
RightHand  -0.120135 -0.207253 -2.6606
LeftUpLeg  -23.4766 3.67499 -11.9923
LeftLeg  23.9914 1.93513 1.28822
LeftFoot  1.02387 -0.828297 7.57513
LeftToes  -3.54706e-010 1.16038e-010 5.28031e-012
739
root  -44.2596 38.2857 -0.616548 -112.913 -82.0761 109.606
RightUpLeg  -16.1404 -5.2404 -11.5059
RightLeg  69.7966 2.2696 6.11194
RightFoot  1.88989 -1.06166 9.23809
RightToes  2.32829e-010 0 -3.6325e-017
Spine  3.99312 0.696909 -7.23957
Spine1  15.8334 0.798171 -2.25812
HEad  0.632211 1.89307 -2.24821
LeftShoulder1  0.412719 2.30878 -28.3966
LeftArm  -8.9119 3.66539 -35.946
LeftForeArm  25.2979 -74.1095 -42.6185
LeftHand  -0.0120447 3.95527 -0.857357
RightShoulder  -0.263052 -4.31337 25.1993
RightArm  -6.46332 -8.66797 37.8725
RightForeArm  50.4964 78.4424 80.2872
RightHand  -0.176945 0.568145 -3.53739
LeftUpLeg  -20.7527 6.20736 -10.5502
LeftLeg  25.1058 0.897572 0.819114
LeftFoot  -1.32118 -0.660728 7.61584
LeftToes  -3.54706e-010 1.16038e-010 5.28031e-012
740
root  -45.1156 38.5309 -0.626434 -123.911 -83.0743 119.535
RightUpLeg  -19.7624 -4.76701 -9.64206
RightLeg  68.6065 2.1118 5.25211
RightFoot  1.52285 -0.927541 8.30382
RightToes  2.32829e-010 0 -3.6325e-017
Spine  7.45804 0.823405 -5.84322
Spine1  15.1934 0.785038 -2.51013
HEad  0.423841 2.53812 -2.92914
LeftShoulder1  0.496636 2.05286 -28.0889
LeftArm  -8.45321 0.475871 -36.6681
LeftForeArm  19.2018 -72.0571 -36.5805
LeftHand  -0.00484016 3.45705 -0.891939
RightShoulder  -0.200871 -4.11797 25.0452
RightArm  -6.71304 -4.65817 38.3975
RightForeArm  35.3779 77.4456 64.7405
RightHand  -0.184898 1.11115 -3.41947
LeftUpLeg  -18.1249 7.48808 -8.68843
LeftLeg  25.4317 0.478421 0.611805
LeftFoot  -3.11241 -0.529361 7.6053
LeftToes  -3.54706e-010 1.16038e-010 5.28031e-012
741
root  -46.0052 38.8018 -0.598922 -134.832 -84.2806 129.917
RightUpLeg  -22.3268 -4.61465 -7.50516
RightLeg  62.9795 2.02505 3.78665
RightFoot  0.737387 -0.785958 7.46752
RightToes  2.32829e-010 0 -3.6325e-017
Spine  10.1592 0.548667 -3.94902
Spine1  14.364 0.630471 -2.83566
HEad  0.679663 2.78699 -2.96363
LeftShoulder1  0.622309 1.66984 -27.8057
LeftArm  -7.89633 -2.6317 -37.4384
LeftForeArm  14.3129 -69.6222 -31.3502
LeftHand  -0.00908886 3.34469 -0.529501
RightShoulder  -0.109909 -3.83303 24.6375
RightArm  -6.82128 -0.919145 39.038
RightForeArm  22.2221 75.5557 51.4545
RightHand  -0.201337 1.72922 -3.44722
LeftUpLeg  -15.719 8.44257 -6.67323
LeftLeg  25.2465 -0.338985 0.141731
LeftFoot  -4.73686 -0.408471 7.56718
LeftToes  -3.54706e-010 1.16038e-010 5.28031e-012
